<?xml version="1.0" encoding="UTF-8"?>
<svg enable-background="new 0 0 1209.872 1699.001" version="1.1" viewBox="0 0 1209.872 1699.001" xmlns="http://www.w3.org/2000/svg">
 <style type="text/css">.st0{fill:#FFFFFF;}</style>
 <path d="m626.41 50.022c-7.193-0.778-14.386-0.539-21.585-0.225-7.199-0.314-14.392-0.553-21.585 0.225-331.36 5.401-548.53 303.48-505.2 600.4 23.893 167.22 115.65 257.27 171.46 316.01 120.02 126.06 98.977 162.49 139.25 225.62-21.847 28.048-24.026 71.245-1.648 99.612-17.364 28.58-17.665 68.765 4.713 94.775-20.476 31.982-18.608 77.175 8.345 100.91-5.833 37.263 21.687 100.39 96.352 99.134 1.835 7.057 2.615 35.574 28.544 52.411 22.791 15.301 33.22 8.487 120.83 10.596 13.537 0.213 27.393-2.995 38.715-10.596 25.906-16.821 26.712-45.365 28.544-52.411 69.851 1.174 102.81-57.885 96.352-99.134 27.183-23.933 28.625-69.231 8.345-100.91 22.378-26.01 22.077-66.196 4.713-94.775 22.378-28.367 20.199-71.564-1.648-99.612 18.569-29.111 27.339-62.953 42.134-93.907 40.361-89.323 118.84-144.28 175.15-219.92 240.72-326.12 19.831-821.17-411.77-828.21z"/>
 <path class="st0" d="m524.2 322.6c48.714 52.887 44.272 124.14-12.19 172.03 46.6 39.059 62.963 107.34 29.43 160.44-21.599-8.771-47.219-9.905-68.41 0.62-15.397-10.737-34.816-15.521-53.314-11.269-14.058-51.802-57.926-76.267-110.56-64.442 0-12.952-2.87-25.904-9.444-37.155 20.766-1.914 41.142-10.418 55.99-25.249 21.952 26.53 58.082 34.106 89.726 13.891 8.221 17.169 22.396 31.539 40.132 38.803 2.906-7.194 5.723-14.405 8.717-21.545-36.456-15.635-47.837-72.308-8.523-99.453-4.43-6.414-8.806-12.863-13.236-19.26-24.93 16.638-38.218 47.839-33.984 77.394-24.695 20.091-53.098 13.835-68.269-9.143 7.335-14.263 9.798-31.113 5.262-46.617 33.944-20.88 37.112-62.047 22.485-93.251 47.074-1.22 78.651-30.766 80.175-77.022 22.378-7.016 40.061-26.241 45.111-49.168-7.389-1.931-14.813-3.703-22.307-5.191-9.078 40.401-58.74 44.695-86.395 13.129-5.971 5.014-11.747 10.223-17.488 15.468 14.635 16.726 35.472 28.19 57.903 29.271-12.072 102.84-178.4 29.849-144.85-52.677 9.459-25.101 38.855-44.549 72.096-30.794 110.8-163.91 227.43 6.344 141.94 121.19zm-237.99-42.985c15.991 41.547 43.497 61.444 79.91 74.452 32.534 25.859 18.474 85.043-26.028 83.081 25.214 28.823 16.994 54.331-9.639 70.395-57.774 33.943-73.298-18.663-141.94 17.311-43.266-51.995 2.963-129.5 66.887-128.26-33.555-35.756-34.619-110.41 30.811-116.98zm-7.513 335.28c56.62-24.962 104.92-20.123 119.63 39.707-17.346 12.793-26.79 34.834-23.867 56.22-62.888 42.087-43.474 132.33 37.988 140.54 4.057 29.944 26.453 54.98 54.253 65.629 3.154-7.087 5.599-14.44 8.434-21.634-50.724-20.729-57.526-88.132 2.959-104.31-1.719-7.53-3.366-15.078-5.05-22.609-29.82 6.607-52.852 26.297-60.313 59.48-64.036-8.064-70.705-74.236-11.535-105.14-14.002-59.62 33.091-71.614 70.324-36.783 66.736-56.035 146.21 56.851 67.755 140.44 92.475 100.04-11.622 222.97-100.39 132.27-67.741 27.295-108.96-11.979-99.843-80.902-70.81 20.231-114.18-35.714-93.305-105.42-66.112-20.811-90.579-79.246-87.564-143.24 9.068-132.06 166.63-117.98 120.52-14.244z"/>
 <path class="st0" d="m827.39 201.41c33.147-13.716 62.603 5.603 72.096 30.794 33.577 82.577-132.79 155.38-144.85 52.677 22.431-1.081 43.268-12.545 57.903-29.271-5.741-5.245-11.517-10.454-17.488-15.468-27.647 31.557-77.315 27.28-86.395-13.129-7.495 1.488-14.919 3.26-22.307 5.191 5.05 22.928 22.733 42.152 45.111 49.168 1.524 46.257 33.105 75.801 80.175 77.022-14.488 30.908-11.75 72.193 22.485 93.251-4.536 15.504-2.073 32.354 5.262 46.617-15.126 22.91-43.508 29.288-68.269 9.143 4.235-29.554-9.054-60.756-33.984-77.394-4.43 6.396-8.806 12.846-13.236 19.26 39.299 27.134 27.947 83.812-8.523 99.453 2.994 7.141 5.812 14.352 8.717 21.545 17.736-7.265 31.911-21.634 40.132-38.803 31.218 19.942 67.449 13.031 89.726-13.891 14.848 14.83 35.224 23.335 55.99 25.249-6.573 11.251-9.444 24.203-9.444 37.155-52.583-11.813-96.491 12.589-110.56 64.442-18.498-4.252-37.917 0.532-53.314 11.269-21.191-10.525-46.812-9.391-68.41-0.62-33.571-53.164-17.113-121.43 29.43-160.44-56.477-47.905-60.891-119.15-12.19-172.03-75.922-102 5.287-223.72 84.02-180.34 24.594 13.624 42.437 36.233 57.922 59.143zm126.86 195.18c63.903-1.237 110.17 76.246 66.887 128.26-15.694-8.225-37.67-20.541-78.882-8.363-46.737 13.978-119.01-26.402-72.698-79.343-44.501 1.961-58.568-57.218-26.028-83.081 35.043-12.519 63.386-31.523 79.91-74.452 64.775 6.497 64.734 80.825 30.811 116.98zm9.656 375.79c20.839 69.591-22.337 125.7-93.305 105.42 9.123 68.938-32.481 108.04-99.843 80.902-89.352 91.299-192.35-32.78-100.39-132.27-78.548-83.687 0.915-196.56 67.755-140.44 36.775-34.403 84.439-23.315 70.324 36.783 58.943 30.786 52.747 97.046-11.535 105.14-7.412-32.964-30.243-52.818-60.313-59.48-1.683 7.53-3.331 15.078-5.05 22.609 60.391 16.15 53.744 83.554 2.959 104.31 2.835 7.194 5.28 14.547 8.434 21.634 27.8-10.649 50.196-35.685 54.253-65.629 81.536-8.215 100.85-98.471 37.988-140.54 2.924-21.386-6.52-43.428-23.867-56.22 14.762-60.007 63.078-64.641 119.63-39.707-37.249-83.81 51.987-98.654 90.062-61.323 48.087 46.071 48.526 185.55-57.104 218.8z"/>
</svg>
