<?xml version="1.0" encoding="UTF-8"?>
<svg width="541.87mm" height="486.35mm" version="1.1" viewBox="0 0 1919.9999 1723.2904" xmlns="http://www.w3.org/2000/svg" xmlns:xlink="http://www.w3.org/1999/xlink">
 <defs>
  <linearGradient id="l">
   <stop stop-opacity="0" offset="0"/>
   <stop stop-color="#fff" stop-opacity=".661" offset="1"/>
  </linearGradient>
  <linearGradient id="p" x1="6603.9" x2="6603.9" y1="946.88" y2="-1479.8" gradientUnits="userSpaceOnUse" xlink:href="#l"/>
  <linearGradient id="h" x1="3145.3" x2="3082.1" y1="1359.6" y2="1461" gradientUnits="userSpaceOnUse">
   <stop offset="0"/>
   <stop stop-color="#4d4d4d" offset="1"/>
  </linearGradient>
  <linearGradient id="q" x1="1255.4" x2="1255.4" y1="1523.3" y2="2330.3" gradientTransform="translate(750,-500)" gradientUnits="userSpaceOnUse">
   <stop stop-color="#666" offset="0"/>
   <stop stop-color="#ccc" offset=".38302"/>
   <stop stop-color="#b3b3b3" offset=".62399"/>
   <stop stop-color="#e6e6e6" offset=".79103"/>
   <stop stop-color="#666" offset="1"/>
  </linearGradient>
  <linearGradient id="r" x1="2155.1" x2="2155.1" y1="1830.3" y2="1885.4" gradientUnits="userSpaceOnUse">
   <stop offset="0"/>
   <stop stop-color="#b3b3b3" offset=".19188"/>
   <stop stop-color="#b3b3b3" offset=".92016"/>
   <stop stop-color="#1a1a1a" offset="1"/>
  </linearGradient>
  <filter id="m" x="-.084455" y="-.74658" width="1.1689" height="2.4932" color-interpolation-filters="sRGB">
   <feGaussianBlur stdDeviation="97.211503"/>
  </filter>
  <linearGradient id="s" x1="6603.9" x2="6603.9" y1="946.88" y2="-1479.8" gradientTransform="matrix(.53718 0 0 1 1865.2 0)" gradientUnits="userSpaceOnUse" xlink:href="#l"/>
  <linearGradient id="t" x1="6603.9" x2="6603.9" y1="946.88" y2="-1479.8" gradientTransform="matrix(.46079 0 0 1.0422 2173 62.446)" gradientUnits="userSpaceOnUse" xlink:href="#l"/>
  <filter id="o" x="-.084455" y="-.74658" width="1.1689" height="2.4932" color-interpolation-filters="sRGB">
   <feGaussianBlur stdDeviation="97.211503"/>
  </filter>
  <filter id="n" x="-.084455" y="-.74658" width="1.1689" height="2.4932" color-interpolation-filters="sRGB">
   <feGaussianBlur stdDeviation="97.211503"/>
  </filter>
 </defs>
 <g transform="translate(-3523.9 -2059.9)">
  <g transform="matrix(.33744 0 0 .33744 2459.7 2592.8)" shape-rendering="auto">
   <ellipse transform="matrix(1.5407 0 0 .53735 -3437.1 1177.3)" cx="6356.2" cy="2349.6" rx="1381.2" ry="156.25" color="#000000" color-rendering="auto" filter="url(#m)" image-rendering="auto" opacity=".35" solid-color="#000000" style="isolation:auto;mix-blend-mode:normal"/>
   <g transform="translate(50.747 -79.364)">
    <g transform="translate(4150.4 633.85)">
     <path d="m1668.3 1023.3c-21.173 364.76-50.392 673.41-302 806.95h1577.6c-251.61-133.54-280.83-442.19-302-806.95z" color="#000000" color-rendering="auto" fill="url(#q)" image-rendering="auto" solid-color="#000000" style="isolation:auto;mix-blend-mode:normal"/>
     <rect x="1366.3" y="1830.3" width="1577.6" height="55.113" color="#000000" color-rendering="auto" fill="url(#r)" image-rendering="auto" solid-color="#000000" style="isolation:auto;mix-blend-mode:normal"/>
    </g>
    <rect x="4030" y="-1499.8" width="4551" height="3221" ry="60" color="#000000" color-rendering="auto" fill="#333" image-rendering="auto" solid-color="#000000" style="isolation:auto;mix-blend-mode:normal"/>
    <rect x="4030" y="-1479.8" width="4551" height="3221" ry="60" color="#000000" color-rendering="auto" fill="#333" image-rendering="auto" solid-color="#000000" style="isolation:auto;mix-blend-mode:normal"/>
    <rect x="4030" y="-1479.8" width="4551" height="3221" ry="60" color="#000000" color-rendering="auto" fill="url(#p)" image-rendering="auto" opacity=".904" solid-color="#000000" style="isolation:auto;mix-blend-mode:normal"/>
    <path d="m4090-1479.8h2215.5l2275.5 2630.5v530.5c0 33.24-26.76 60-60 60h-4431c-33.24 0-60-26.76-60-60v-3101c0-33.24 26.76-60 60-60z" color="#000000" color-rendering="auto" fill="#1a1a1a" image-rendering="auto" solid-color="#000000" style="isolation:auto;mix-blend-mode:normal"/>
    <rect x="4133.8" y="-1357.8" width="4342.6" height="2821" ry="52.549" color="#000000" color-rendering="auto" image-rendering="auto" solid-color="#000000" style="isolation:auto;mix-blend-mode:normal"/>
    <rect x="4212.8" y="-1281.1" width="4184.6" height="2667.4" color="#000000" color-rendering="auto" fill="#fff" image-rendering="auto" solid-color="#000000" style="isolation:auto;mix-blend-mode:normal"/>
    <g transform="translate(5302.9 192.5)">
     <circle cx="3113.8" cy="1410.4" r="59.753" color="#000000" color-rendering="auto" fill="url(#h)" image-rendering="auto" solid-color="#000000" style="isolation:auto;mix-blend-mode:normal"/>
     <path d="m3122.5 1358.2-0.8867 7.8477a45.11 45.11 0 0 1 37.299 44.385 45.11 45.11 0 0 1 -45.111 45.111 45.11 45.11 0 0 1 -45.109 -45.111 45.11 45.11 0 0 1 37.293 -44.42l-0.8789-7.7656a52.967 52.967 0 0 0 -44.272 52.186 52.967 52.967 0 0 0 52.967 52.967 52.967 52.967 0 0 0 52.967 -52.967 52.967 52.967 0 0 0 -44.268 -52.232z" color="#000000" color-rendering="auto" fill="#2affd5" image-rendering="auto" solid-color="#000000" style="isolation:auto;mix-blend-mode:normal"/>
     <rect x="3109.9" y="1357.4" width="7.8287" height="53.033" ry="0" color="#000000" color-rendering="auto" fill="#2affd5" image-rendering="auto" solid-color="#000000" style="isolation:auto;mix-blend-mode:normal"/>
    </g>
   </g>
   <ellipse transform="matrix(.7116 0 0 .32579 -220.32 2393.8)" cx="6356.2" cy="2349.6" rx="1381.2" ry="156.25" color="#000000" color-rendering="auto" filter="url(#o)" image-rendering="auto" opacity=".35" solid-color="#000000" style="isolation:auto;mix-blend-mode:normal"/>
   <g transform="matrix(.78053 0 0 .78053 203.16 1787.5)">
    <rect x="4030" y="-1499.8" width="2444.7" height="3221" ry="60" color="#000000" color-rendering="auto" fill="#333" image-rendering="auto" solid-color="#000000" style="isolation:auto;mix-blend-mode:normal"/>
    <rect x="4030" y="-1479.8" width="2444.7" height="3221" ry="60" color="#000000" color-rendering="auto" fill="#333" image-rendering="auto" solid-color="#000000" style="isolation:auto;mix-blend-mode:normal"/>
    <rect x="4030" y="-1479.8" width="2444.7" height="3221" ry="60" color="#000000" color-rendering="auto" fill="url(#s)" image-rendering="auto" opacity=".904" solid-color="#000000" style="isolation:auto;mix-blend-mode:normal"/>
    <path d="m4090-1479.8h1164.9l1199.3 2630.5v530.5c0 33.24-26.76 60-60 60h-2304.3c-33.24 0-60-26.76-60-60v-3101c0-33.24 26.76-60 60-60z" color="#000000" color-rendering="auto" fill="#1a1a1a" image-rendering="auto" solid-color="#000000" style="isolation:auto;mix-blend-mode:normal"/>
    <g transform="matrix(.47265 0 0 1.006 2269 57.476)">
     <rect x="4077.3" y="-1344.7" width="4455.7" height="2794.8" color="#000000" color-rendering="auto" image-rendering="auto" solid-color="#000000" style="isolation:auto;mix-blend-mode:normal"/>
     <rect x="4212.8" y="-1281.1" width="4184.6" height="2667.4" color="#000000" color-rendering="auto" fill="#fff" image-rendering="auto" solid-color="#000000" style="isolation:auto;mix-blend-mode:normal"/>
    </g>
    <g transform="matrix(1.268 0 0 1.268 1251.8 -176.9)">
     <circle cx="3113.8" cy="1410.4" r="59.753" color="#000000" color-rendering="auto" fill="url(#h)" image-rendering="auto" solid-color="#000000" style="isolation:auto;mix-blend-mode:normal"/>
     <path d="m3122.5 1358.2-0.8867 7.8477a45.11 45.11 0 0 1 37.299 44.385 45.11 45.11 0 0 1 -45.111 45.111 45.11 45.11 0 0 1 -45.109 -45.111 45.11 45.11 0 0 1 37.293 -44.42l-0.8789-7.7656a52.967 52.967 0 0 0 -44.272 52.186 52.967 52.967 0 0 0 52.967 52.967 52.967 52.967 0 0 0 52.967 -52.967 52.967 52.967 0 0 0 -44.268 -52.232z" color="#000000" color-rendering="auto" fill="#2affd5" image-rendering="auto" solid-color="#000000" style="isolation:auto;mix-blend-mode:normal"/>
     <rect x="3109.9" y="1357.4" width="7.8287" height="53.033" ry="0" color="#000000" color-rendering="auto" fill="#2affd5" image-rendering="auto" solid-color="#000000" style="isolation:auto;mix-blend-mode:normal"/>
    </g>
   </g>
   <g transform="translate(40)">
    <ellipse transform="matrix(.31569 0 0 .22951 3317.8 2899.2)" cx="6356.2" cy="2349.6" rx="1381.2" ry="156.25" color="#000000" color-rendering="auto" filter="url(#n)" image-rendering="auto" opacity=".35" solid-color="#000000" style="isolation:auto;mix-blend-mode:normal"/>
    <g transform="matrix(.39729 0 0 .39729 3306.7 2687.5)">
     <rect x="4030" y="-1499.8" width="2097" height="3376.9" ry="62.904" color="#000000" color-rendering="auto" fill="#333" image-rendering="auto" solid-color="#000000" style="isolation:auto;mix-blend-mode:normal"/>
     <rect x="4030" y="-1479.8" width="2097" height="3356.9" ry="62.532" color="#000000" color-rendering="auto" fill="#333" image-rendering="auto" solid-color="#000000" style="isolation:auto;mix-blend-mode:normal"/>
     <rect x="4030" y="-1479.8" width="2097" height="3356.9" ry="62.532" color="#000000" color-rendering="auto" fill="url(#t)" image-rendering="auto" opacity=".904" solid-color="#000000" style="isolation:auto;mix-blend-mode:normal"/>
     <path d="m4090-1479.8h913.23l1123.8 2630.5v666.42c0 33.24-26.76 60-60 60h-1977c-33.24 0-60-26.76-60-60v-3236.9c0-33.24 26.76-60 60-60z" color="#000000" color-rendering="auto" fill="#1a1a1a" image-rendering="auto" solid-color="#000000" style="isolation:auto;mix-blend-mode:normal"/>
     <g transform="matrix(.39745 0 0 .9553 2575.6 115.29)">
      <rect x="4054.5" y="-1346.9" width="4501.3" height="2799.2" color="#000000" color-rendering="auto" image-rendering="auto" solid-color="#000000" style="isolation:auto;mix-blend-mode:normal"/>
      <rect x="4212.8" y="-1281.1" width="4184.6" height="2667.4" color="#000000" color-rendering="auto" fill="#fff" image-rendering="auto" solid-color="#000000" style="isolation:auto;mix-blend-mode:normal"/>
     </g>
     <g transform="matrix(1.4417 0 0 1.4417 592.5 -368.19)">
      <circle cx="3113.8" cy="1410.4" r="59.753" color="#000000" color-rendering="auto" fill="url(#h)" image-rendering="auto" solid-color="#000000" style="isolation:auto;mix-blend-mode:normal"/>
      <path d="m3122.5 1358.2-0.8867 7.8477a45.11 45.11 0 0 1 37.299 44.385 45.11 45.11 0 0 1 -45.111 45.111 45.11 45.11 0 0 1 -45.109 -45.111 45.11 45.11 0 0 1 37.293 -44.42l-0.8789-7.7656a52.967 52.967 0 0 0 -44.272 52.186 52.967 52.967 0 0 0 52.967 52.967 52.967 52.967 0 0 0 52.967 -52.967 52.967 52.967 0 0 0 -44.268 -52.232z" color="#000000" color-rendering="auto" fill="#2affd5" image-rendering="auto" solid-color="#000000" style="isolation:auto;mix-blend-mode:normal"/>
      <rect x="3109.9" y="1357.4" width="7.8287" height="53.033" ry="0" color="#000000" color-rendering="auto" fill="#2affd5" image-rendering="auto" solid-color="#000000" style="isolation:auto;mix-blend-mode:normal"/>
     </g>
    </g>
   </g>
  </g>
 </g>
</svg>
