<?xml version="1.0" encoding="UTF-8"?>
<svg enable-background="new -0.258 -0.548 123.547 123.539" viewBox="-0.258 -0.548 123.547 123.539" xmlns="http://www.w3.org/2000/svg">
 <path d="m110.1 123.28c8.156 0 14.766-6.617 14.766-14.773v-94.016c0-8.148-6.609-14.742-14.766-14.742h-94.016c-8.156 0-14.766 6.594-14.766 14.742v94.016c0 8.156 6.609 14.773 14.766 14.773h94.016z" fill="#231f20"/>
 <path d="m16.086 2.254c-6.766 0-12.266 5.492-12.266 12.242v94.016c0 6.773 5.5 12.281 12.266 12.281h94.016c6.766 0 12.258-5.508 12.258-12.281v-94.016c0-6.75-5.492-12.242-12.258-12.242h-94.016z" fill="#fff"/>
 <path d="m63.094 105.36c24.219 0 43.875-19.633 43.875-43.867 0-24.219-19.656-43.852-43.875-43.852-24.242 0-43.891 19.633-43.891 43.852 0 24.234 19.649 43.867 43.891 43.867zm-51.414-43.867c0-28.391 23.023-51.391 51.414-51.391 28.398 0 51.422 23 51.422 51.391 0 28.383-23.023 51.406-51.422 51.406-28.391 0-51.414-23.023-51.414-51.406z" fill="#231f20"/>
 <path d="m57.383,77.215 10.477-.023v-8.125c0-2.227 1.039-4.32 3.773-6.133 2.758-1.781 10.445-5.469 10.445-15.086 0-9.641-8.07-16.258-14.859-17.672-6.781-1.398-14.148-.469-19.359,5.242-4.688,5.133-5.648,9.156-5.648,18.094h10.468v-2.078c0-4.734.555-9.766 7.344-11.156 3.719-.758 7.195.414 9.266,2.445 2.367,2.32 2.391,7.516-1.398,10.078l-5.892,4.008c-3.445,2.242-4.617,4.711-4.617,8.297v12.109z" fill="#231f20"/>
 <path d="m57.312 81.949h10.617v10.789h-10.617z" fill="#231f20"/>
</svg>
