<?xml version="1.0" encoding="UTF-8"?>
<svg viewBox="0 0 100 120" xmlns="http://www.w3.org/2000/svg">
 <defs>
  <filter id="a" x="-.13283" y="-.06964" width="1.2656" height="1.1393">
   <feGaussianBlur stdDeviation="3.72121"/>
  </filter>
 </defs>
 <path transform="matrix(1 0 0 .9 -114.93 -118.92)" d="m171.38 148.12c-4.8282 1.1e-4 -9.5078 0.65636-14.031 1.9688s-8.9688 3.297-13.375 5.9688v13.219c4.5469-3.1405 8.8984-5.5155 13.094-7.1562s8.1718-2.4686 11.875-2.4688c5.0625 1e-4 9.1171 1.297 12.188 3.875s4.5937 5.9532 4.5938 10.125c-5e-5 2.297-0.58599 4.547-1.7812 6.75s-3.1407 4.547-5.8125 7.0312l-6.3125 6.25c-4.2188 4.0313-7 7.5782-8.3125 10.625s-1.9688 6.9219-1.9688 11.656v10.844h13.438v-8.6562c-4e-5 -2.4375 0.07808-4.375 0.21875-5.7812s0.34371-2.5781 0.625-3.5625c0.37496-1.1718 1.0234-2.3828 1.9375-3.625s2.4843-2.9843 4.6875-5.1875l6.1875-6.0312c4.2187-4.0312 7.1562-7.664 8.8438-10.875s2.5312-6.5937 2.5312-10.156c-7e-5 -7.453-2.6172-13.453-7.8438-18s-12.156-6.8124-20.781-6.8125zm-10.25 89v17.875h14.25v-17.875h-14.25z" filter="url(#a)" opacity=".6"/>
 <path transform="matrix(1 0 0 .9 -114.93 -118.92)" d="m157.75 143.12c-4.8282 1.1e-4 -9.5078 0.65636-14.031 1.9688s-8.9688 3.297-13.375 5.9688v13.219c4.5469-3.1405 8.8984-5.5155 13.094-7.1562s8.1718-2.4686 11.875-2.4688c5.0625 1e-4 9.1171 1.297 12.188 3.875s4.5937 5.9532 4.5938 10.125c-5e-5 2.297-0.58599 4.547-1.7812 6.75s-3.1407 4.547-5.8125 7.0312l-6.3125 6.25c-4.2188 4.0313-7 7.5782-8.3125 10.625s-1.9688 6.9219-1.9688 11.656v10.844h13.438v-8.6562c-4e-5 -2.4375 0.07808-4.375 0.21875-5.7812s0.34371-2.5781 0.625-3.5625c0.37496-1.1718 1.0234-2.3828 1.9375-3.625s2.4843-2.9843 4.6875-5.1875l6.1875-6.0312c4.2187-4.0312 7.1562-7.664 8.8438-10.875s2.5312-6.5937 2.5312-10.156c-7e-5 -7.453-2.6172-13.453-7.8438-18s-12.156-6.8124-20.781-6.8125zm-10.25 89v17.875h14.25v-17.875h-14.25z" fill="#333" stroke="#fff"/>
</svg>
